<?xml version="1.0" encoding="UTF-8"?><svg id="a" xmlns="http://www.w3.org/2000/svg" viewBox="0 0 1920 1080"><defs><style>.b{fill:#e59742;}.c{fill:#f2af51;}.d{fill:#381617;}</style></defs><g><g><path class="d" d="M1033.11,655.07l6.33-6.33v-107.56l12.33,12.33v83.67l18.38-18.38v-44.45l6.6-10.04v-92.51l-3.05-7.13v-42.18l5.38-4.07v-104.72l-5.82-8.73v-44.51l5.24,6.69v7.56l2.62,.07v-9.96l-8.15-17.74-10.69-8.29v-55.42l4.65,13.96s1.75-43.42,6.76-53.89l5.02-50.18,2.84,51.27s2.76,61.53,28.36,56.29c0,0,6.11-3.93,7.85-11.78,0,0,4.65,14.11,12.07,11.64,0,0,12.8,4.22,22.69-23.27,0,0,6.4-21.96,6.4-40.73l2.47-48.65,10.25,114.54,7.85-24.65v49.53l-20.94,33.6-.44,10.25,2.62,.22,.44-6.98,4.58-4.58v43.42l-6.11,12.87v99.71l3.49,3.93v50.18l-3.27,4.15,1.75,48.07,4.58-16.65v133.09l24.11,18.22-157.19-1.85Z"/><g><ellipse class="c" cx="1120.11" cy="135.13" rx="39.41" ry="13.35"/><ellipse cx="1118.85" cy="134.86" rx="2.25" ry="13.19"/></g></g><polygon class="d" points="643.21 811.67 643.21 420.02 767.23 451.03 767.23 746.4 954.89 746.4 954.89 655.01 1021.8 655.01 1271.48 656.64 1284.53 136.08 1385.71 137.71 1413.45 814.93 643.21 811.67"/></g><polygon class="b" points="1120.85 136.08 676.22 515.51 877.67 608.04 1120.85 136.08"/><g><path d="M662.36,964.3c.09,1.51-.17,3.5-.78,5.95-.8,2.84-1.77,7.11-2.91,12.83-.8,5.58-2.06,8.41-3.76,8.51-1.89,.05-3.9,.02-6.03-.07-2.79-.14-5.27-.21-7.44-.21-5.06,0-9.1-.07-12.12-.21-3.03-.14-4.25-.21-3.69-.21-2.27,0-5.08,.12-8.44,.35-.28-.05-.64-.17-1.06-.35-.9-.24-5.62-.35-14.18-.35h-12.97c-.14,0-.57-.08-1.28-.25-.71-.17-1.25-.25-1.63-.25,.19-.85,.45-2.01,.78-3.47,1.04-.19,2.48-.57,4.32-1.13,1.89-.9,3.35-2.46,4.39-4.68,.57-.57,1.18-1.42,1.84-2.55,.05-.71-.08-1.82-.39-3.33-.31-1.51-.46-2.62-.46-3.33,.47,.09,1.56-.64,3.26-2.2-.09-.14-.47-.9-1.13-2.27-.05-.09-.43-.17-1.13-.21-.95-.85-.73-2.17,.64-3.97,.8-1.04,1.21-2.43,1.21-4.18,0-1.04-.18-2.49-.53-4.36s-.53-3.06-.53-3.58c0-.24,.12-.64,.35-1.21,.24-.57,.35-.94,.35-1.13v-6.59c0-.14,.14-.68,.43-1.63,.28-.94,.45-1.68,.5-2.2,0-.24-.21-1.16-.64-2.76,.05,.14,.16-.8,.35-2.84,.05-.47-.02-1.09-.21-1.84-.24-.94-.35-1.61-.35-1.98-.05-.66,.07-1.94,.35-3.83,.28-2.08,.45-3.43,.5-4.04,0-.8-.07-2.06-.21-3.76-.14-1.7-.21-2.57-.21-2.62v-6.8c0-.28,.14-.66,.43-1.13l-.43-7.58c-.14-2.08-.09-3.69,.14-4.82,.14-.61,.21-1.25,.21-1.91,0-1.28-.26-2.84-.78-4.68-.43-1.42-.85-2.86-1.28-4.32-.05-.09-.02-1.37,.07-3.83,0,.05-.17-5.13-.5-15.52-.14-.76-.35-1.94-.64-3.54,0-.05,.12-.99,.35-2.84,.05-.33-.07-.89-.35-1.67s-.45-1.31-.5-1.59c.05,.28,.26-1.09,.64-4.11-.76-1.46-2.15-3.43-4.18-5.88-.57-.43-1.47-.68-2.69-.78-1.56-.14-2.51-.26-2.84-.35-.24-.33-.24-.94,0-1.84,.24-.85,.57-1.39,.99-1.63,1.98-.14,2.93-.21,2.84-.21,3.97,.28,9.99,.62,18.08,.99,2.03,.09,2.86,.14,2.48,.14,7.51-.8,11.1-1.21,10.77-1.21h10.21c.09,.95-.17,2.1-.78,3.47-1.65,.33-4.14,.8-7.44,1.42-3.12,.52-5.41,2.84-6.88,6.95-.38,1.18-.8,3.38-1.28,6.59-.57,4.63-.85,7.92-.85,9.85v71.1c0,.19,.05,.71,.14,1.56,.09,.85,.14,1.42,.14,1.7,.14,2.88,.14,5.44,0,7.66-.19,3.21,.21,4.96,1.21,5.25-.05-.14-.17,1.32-.35,4.39-.05,0-.17,.09-.35,.28,1.28,6,1.91,9.47,1.91,10.42-.66,.99-1.37,2.6-2.13,4.82-.05,.57,.59,2.55,1.91,5.95,1.84,.09,4.61,.31,8.29,.64,.66,.09,1.68,.66,3.05,1.7,.24-.33,.73-.9,1.49-1.7,1.18-.05,2.84,.05,4.96,.28,2.32,.19,3.99,.28,5.03,.28,.19,0,.61-.2,1.28-.6,.66-.4,1.16-.65,1.49-.74,1.28-.24,3.14-.71,5.6-1.42,.52-.19,1.39-1.18,2.62-2.98l2.69-3.83c2.74-3.36,4.09-6.36,4.04-9,.94,.19,2.27,.54,3.97,1.06Zm-61.17-81.38c-.05-1.18-.07-2.48-.07-3.9s.05-3.45,.14-6.24c.09-2.79,.14-4.87,.14-6.24,0-6.1-.73-10.92-2.2-14.46-.28,.52-.33,1.54-.14,3.05,.14,1.09,.28,2.17,.43,3.26,.19,5.95,.76,14.13,1.7,24.53Z"/><path d="M709.5,955.44c-.85,.38-2.1,.5-3.76,.35-2.74-.24-4.02-.35-3.83-.35h-5.67c-6.85,0-12.19,.35-16.02,1.06-2.13,.38-3.54,.16-4.25-.64-.09-1.42-.02-2.62,.21-3.62,.94-.09,2.27-.43,3.97-.99,.71-.43,1.25-1.13,1.63-2.13,.38-.99,.45-1.77,.21-2.34-.62-2.74-1.56-6.85-2.84-12.33-.09-.33-.62-1.68-1.56-4.04-.76-1.89-1.13-3.33-1.13-4.32-.05-.28-.35-.43-.92-.43-.8,0-4.68,.19-11.63,.57l-14.96,.21c-1.09-.05-2.1,.95-3.05,2.98-.47,1.04-1.13,2.58-1.98,4.61-1.09,3.31-1.61,5.27-1.56,5.88,0-.33-.24,1.09-.71,4.25-.33,2.22-.33,3.73,0,4.54,.19,.47,.91,1.23,2.16,2.27,1.25,1.04,2.33,1.73,3.23,2.06,.24,.09,.61,.21,1.13,.35,.38,.66,.68,1.18,.92,1.56-.99,.28-2.36,.59-4.11,.92-2.74-.24-6.69-.43-11.84-.57-1.09,.33-2.76,.66-5.03,.99-.09,0-1.82-.21-5.17-.64-.09-.24-.14-.45-.14-.64,0-.57,.71-1.37,2.13-2.41,.52-.71,1.39-1.63,2.62-2.76,1.09-.71,2.03-1.93,2.84-3.65,.8-1.72,2.03-4.41,3.69-8.05,.71-2.27,1.77-5.69,3.19-10.28,.94-2.17,2.15-5.48,3.62-9.92,1.09-3.26,2.67-8.1,4.75-14.53,.19-.19,.43-.47,.71-.85,.14,.76,.33,1.13,.57,1.13,.33,0,.76-1.02,1.28-3.05,.47-1.84,.71-3.17,.71-3.97,0-.14-.02-.21-.07-.21-.09,.14-.26,.57-.5,1.28,0-.47,.05-1.13,.14-1.98,.76-1.98,1.82-4.91,3.19-8.79,.33-1.84,1.35-4.58,3.05-8.22,.24-.8,.59-2.03,1.06-3.69,.43-1.42,1.25-3.54,2.48-6.38,.14-.61,.5-1.49,1.06-2.62,.28-.33,1.39-.43,3.33-.28,1.84,.05,4.63,.21,8.36,.5,1.23,3.54,3.43,9.19,6.59,16.94,.09,.9,.35,2.22,.78,3.97,.76,2.22,1.75,4.28,2.98,6.17-.24,.33-.05,1.56,.57,3.69,.76,1.7,1.87,4.21,3.33,7.51,.99,3.26,2.53,7.8,4.61,13.61,.14,1.32,.59,3.21,1.35,5.67,0,.38,.12,.97,.35,1.77,.57,1.23,1.58,3.59,3.05,7.09,.52,.76,1.23,1.91,2.13,3.47-.05,.38,0,.9,.14,1.56,.66,1.94,1.68,4.66,3.05,8.15,.47,.8,1.28,2.27,2.41,4.39,.28,.57,1.63,1.3,4.04,2.2,.71,.24,1.75,.59,3.12,1.06v1.91Zm-36.43-37.14s-1.77-4.75-5.17-14.11c-.57-1.89-1.44-4.7-2.62-8.44-.57-1.13-1.32-2.76-2.27-4.89-.28-.99-.78-2.41-1.49-4.25-1.7,3.88-3.59,7.8-5.67,11.77-.28,.28-.62,.73-.99,1.35-.14,.71-.4,1.8-.78,3.26-.33,.66-.73,1.61-1.21,2.84-.05,.8-.17,1.84-.35,3.12-.33,.47-.71,1.13-1.13,1.98-.24,1.09-.59,2.62-1.06,4.61-.24,.38-.54,.9-.92,1.56,.09-.52,.14-.12,.14,1.21h23.53Z"/><path d="M869.63,843.72c-.95,.28-2.43,.8-4.47,1.56-3.59,1.65-6.1,3.71-7.51,6.17-.9,1.61-1.06,4.75-.5,9.43,.05,.19,.19,.53,.43,1.03,.24,.5,.35,.86,.35,1.1,0-.24-.47,1.06-1.42,3.9-.43,1.47-.64,2.98-.64,4.54v12.05c0,.28,.12,.59,.35,.92,.24,.33,.38,.59,.43,.78,.05,.24-.02,.7-.21,1.38-.19,.69-.28,1.17-.28,1.45v11.34c0-.47-.12,1.54-.35,6.03-.24,3.97-.31,6.76-.21,8.36,.61,7.28,.92,10.44,.92,9.5v16.02c0,2.6-.17,5.06-.5,7.37-.38,1.18-.83,2.95-1.35,5.32-.38,2.88-.38,5.32,0,7.3,.52,1.42,1.09,3.54,1.7,6.38-.24,2.5-.28,5.91-.14,10.21,.57,3.02,2.69,5.27,6.38,6.73,1.28,.47,3.26,1.49,5.95,3.05,.33,.61,.25,1.58-.25,2.91-.5,1.32-1.15,1.96-1.95,1.91-2.93-.24-5.84-.47-8.72-.71-5.01-.38-8.27-.54-9.78-.5-.43,0-.91,.21-1.45,.64-.54,.43-.86,.64-.96,.64h-9.99c-.57,0-1.67,.08-3.3,.25-1.63,.16-2.92,.25-3.86,.25-2.6,0-4.63-.54-6.1-1.63-.05-1.47,.16-3.26,.64-5.39,1.46-.33,3.45-1.11,5.95-2.34,1.7-1.47,3.64-3.78,5.81-6.95,1.04-1.51,1.51-4.06,1.42-7.66,0-.33-.14-.93-.43-1.81-.28-.87-.43-1.45-.43-1.74v-10.14c0,.9-.07-1.3-.21-6.59-.14-4.3-.14-7.18,0-8.65,.47-4.73,.38-8.84-.28-12.33-.09-.28,0-3.71,.28-10.28,.19-2.55,.45-6.43,.78-11.63-.05,.09-.54-5.76-1.49-17.58-.05-.99-.33-2.29-.85-3.9-.9,2.41-1.7,4.89-2.41,7.44-1.75,5.77-4.16,14.34-7.23,25.73-.05,1.56-.33,3.92-.85,7.09-1.23,2.98-2.84,7.56-4.82,13.75,0,2.13-.17,5.29-.5,9.5-1.09,3.64-2.69,9.17-4.82,16.59-.33,3.31-1.23,8.48-2.69,15.52-.66,2.17-1.98,5.1-3.97,8.79-.38,.14-.92,.35-1.63,.64-1.65,.85-3.81,1.13-6.45,.85-.47-.9-1.09-2.2-1.84-3.9-.99-4.39-2.62-10.99-4.89-19.78-.76-1.13-1.75-3.12-2.98-5.95,.24-2.17,.19-5.13-.14-8.86-1.18-3.31-2.58-5.53-4.18-6.66,.09-.99,.14-2.01,.14-3.05,0-5.91-1.51-10.4-4.54-13.47-.33-1.32-.83-3.12-1.49-5.39-.76-3.73-1.8-8.79-3.12-15.17-.85-2.36-2.06-5.88-3.62-10.56-.43-1.89-.87-3.78-1.35-5.67-.62-2.22-1.51-3.97-2.69-5.25-.14-2.03-.73-4.58-1.77-7.66-.71,.19-1.25,3.19-1.63,9-.14,2.27,.02,5.72,.5,10.35,.47,4.96,.71,7.25,.71,6.88v12.05c0,2.55-.07,8.36-.21,17.44-.14,7.7-.17,13.52-.07,17.44,.28,1.18,.66,4.02,1.13,8.51,0,3.78,.38,9.4,1.13,16.87,.52,2.84,2.41,5.13,5.67,6.88,1.89,.9,3.87,2.13,5.95,3.69,.47,1.75,.24,3.21-.71,4.39-1.18,.57-2.93,.85-5.25,.85-.95,0-4.51-.33-10.7-.99-1.09-.09-2.51,0-4.25,.28-2.22,.33-3.64,.52-4.25,.57-2.22,.14-5.67-.09-10.35-.71-.85-1.13-1.28-2.36-1.28-3.69,0-1.09,.4-1.89,1.21-2.41,1.13-.19,2.72-.73,4.75-1.63,1.23-.8,2.74-2.17,4.54-4.11,1.04-2.08,1.75-4.49,2.13-7.23,.33-2.51,.66-5.01,.99-7.51v-9.78c0-4.49-.07-6.28-.21-5.39,.99-5.76,1.49-9.31,1.49-10.63v-9.07l-1.91-15.52v-8.79c0-.28,.08-.73,.25-1.35,.16-.61,.25-1.02,.25-1.21,.09-.99,.05-2.55-.14-4.68l-.35-3.47v-11.2c0,.24,.14-.97,.43-3.62,.24-2.32,.26-3.92,.07-4.82-.05-.33-.26-1.16-.64-2.48-.33-1.18-.5-1.91-.5-2.2v-10.14c0-.19-.2-1.04-.6-2.55-.4-1.51-.63-2.67-.67-3.47,0-.14-.66-1.42-1.98-3.83-1.18-2.17-2.34-3.64-3.47-4.39-.33-.19-1.7-.5-4.11-.92-.28-.05-.43-.64-.43-1.77-.05-1.13,.05-1.94,.28-2.41,.8-.76,2.01-1.13,3.62-1.13,2.17-.05,3.45-.12,3.83-.21l15.45,.35c.85,.28,1.58,.43,2.2,.43,.47,0,.97-.08,1.49-.25,.52-.16,.9-.25,1.13-.25,.71,0,1.7,.43,2.98,1.28,.76,.52,1.79,2.84,3.12,6.95,.43,2.41,.99,5.41,1.7,9,.61,2.03,1.51,5.08,2.69,9.14,.8,3.12,2.03,6.76,3.69,10.92,2.88,7.47,6.33,18.41,10.35,32.82,.09,.43-.24,2.13-.99,5.1-.24,.33-.59,.8-1.06,1.42-.24,3.07-.33,4.68-.28,4.82,.24,.62,1.72,1.32,4.47,2.13,.61,2.36,1.54,5.65,2.76,9.85,.66,1.47,1.63,3.81,2.91,7.02,.33,1.84,.92,4.09,1.77,6.73,.76-1.37,1.56-2.88,2.41-4.54,.66-1.75,1.58-4.32,2.76-7.73,0-.61,.07-1.56,.21-2.84,.76-3.97,2.36-9.03,4.82-15.17,.19-1.32,.57-3.33,1.13-6.03,1.04-2.55,2.34-6.66,3.9-12.33,.38-2.93,.76-5.92,1.13-8.97,.38-3.05,1.02-5.71,1.91-7.97,.71-1.23,1.56-3.09,2.55-5.6,1.13-6.57,3.33-16,6.59-28.28,.09-1.51,.61-3.54,1.56-6.1,.94-1.04,2.02-1.56,3.23-1.56s2.96-.04,5.28-.11c2.32-.07,4.16-.11,5.53-.11,.19,0,.55,.09,1.1,.28,.54,.19,.91,.28,1.1,.28l16.94-.35c.52-.09,1.05,.33,1.59,1.28,.54,.95,.82,1.82,.82,2.62,0,.24-.02,.45-.07,.64Z"/><path d="M947.68,955.44c-.85,.38-2.1,.5-3.76,.35-2.74-.24-4.02-.35-3.83-.35h-5.67c-6.85,0-12.19,.35-16.02,1.06-2.13,.38-3.54,.16-4.25-.64-.09-1.42-.02-2.62,.21-3.62,.94-.09,2.27-.43,3.97-.99,.71-.43,1.25-1.13,1.63-2.13,.38-.99,.45-1.77,.21-2.34-.62-2.74-1.56-6.85-2.84-12.33-.09-.33-.62-1.68-1.56-4.04-.76-1.89-1.13-3.33-1.13-4.32-.05-.28-.35-.43-.92-.43-.8,0-4.68,.19-11.63,.57l-14.96,.21c-1.09-.05-2.1,.95-3.05,2.98-.47,1.04-1.13,2.58-1.98,4.61-1.09,3.31-1.61,5.27-1.56,5.88,0-.33-.24,1.09-.71,4.25-.33,2.22-.33,3.73,0,4.54,.19,.47,.91,1.23,2.16,2.27,1.25,1.04,2.33,1.73,3.23,2.06,.24,.09,.61,.21,1.13,.35,.38,.66,.68,1.18,.92,1.56-.99,.28-2.36,.59-4.11,.92-2.74-.24-6.69-.43-11.84-.57-1.09,.33-2.76,.66-5.03,.99-.09,0-1.82-.21-5.17-.64-.09-.24-.14-.45-.14-.64,0-.57,.71-1.37,2.13-2.41,.52-.71,1.39-1.63,2.62-2.76,1.09-.71,2.03-1.93,2.84-3.65,.8-1.72,2.03-4.41,3.69-8.05,.71-2.27,1.77-5.69,3.19-10.28,.94-2.17,2.15-5.48,3.62-9.92,1.09-3.26,2.67-8.1,4.75-14.53,.19-.19,.43-.47,.71-.85,.14,.76,.33,1.13,.57,1.13,.33,0,.76-1.02,1.28-3.05,.47-1.84,.71-3.17,.71-3.97,0-.14-.02-.21-.07-.21-.09,.14-.26,.57-.5,1.28,0-.47,.05-1.13,.14-1.98,.76-1.98,1.82-4.91,3.19-8.79,.33-1.84,1.35-4.58,3.05-8.22,.24-.8,.59-2.03,1.06-3.69,.43-1.42,1.25-3.54,2.48-6.38,.14-.61,.5-1.49,1.06-2.62,.28-.33,1.39-.43,3.33-.28,1.84,.05,4.63,.21,8.36,.5,1.23,3.54,3.43,9.19,6.59,16.94,.09,.9,.35,2.22,.78,3.97,.76,2.22,1.75,4.28,2.98,6.17-.24,.33-.05,1.56,.57,3.69,.76,1.7,1.87,4.21,3.33,7.51,.99,3.26,2.53,7.8,4.61,13.61,.14,1.32,.59,3.21,1.35,5.67,0,.38,.12,.97,.35,1.77,.57,1.23,1.58,3.59,3.05,7.09,.52,.76,1.23,1.91,2.13,3.47-.05,.38,0,.9,.14,1.56,.66,1.94,1.68,4.66,3.05,8.15,.47,.8,1.28,2.27,2.41,4.39,.28,.57,1.63,1.3,4.04,2.2,.71,.24,1.75,.59,3.12,1.06v1.91Zm-36.43-37.14s-1.77-4.75-5.17-14.11c-.57-1.89-1.44-4.7-2.62-8.44-.57-1.13-1.32-2.76-2.27-4.89-.28-.99-.78-2.41-1.49-4.25-1.7,3.88-3.59,7.8-5.67,11.77-.28,.28-.62,.73-.99,1.35-.14,.71-.4,1.8-.78,3.26-.33,.66-.73,1.61-1.21,2.84-.05,.8-.17,1.84-.35,3.12-.33,.47-.71,1.13-1.13,1.98-.24,1.09-.59,2.62-1.06,4.61-.24,.38-.54,.9-.92,1.56,.09-.52,.14-.12,.14,1.21h23.53Z"/><path d="M1040.04,869.17c-.9,.14-2.2,.38-3.9,.71-1.8,.52-3.21,1.65-4.25,3.4-1.47,2.6-2.36,5.15-2.69,7.66-.62,4.35-.92,7.89-.92,10.63,0,.19,.09,2.23,.28,6.13,.19,3.9,.28,5.97,.28,6.2v11.27c0,.14,.08,.62,.25,1.42,.16,.8,.22,1.42,.18,1.84-.28,5.72-.43,8.93-.43,9.64,0,.38,.09,1.15,.28,2.3,.19,1.16,.28,1.83,.28,2.02v21.76c0,.28,.04,.44,.11,.46,.07,.02,.11,.06,.11,.11-3.31,.57-4.8,.85-4.47,.85-1.98,0-3.21-.21-3.69-.64-3.26-3.02-8.08-8.32-14.46-15.88-1.13-1.51-2.84-3.69-5.1-6.52-1.98-1.94-4.68-4.77-8.08-8.51-.85-1.42-2.27-3.52-4.25-6.31-4.25-5.15-10.28-12.74-18.08-22.75-1.04-.8-2.46-2.08-4.25-3.83-.05-.33-.19-.8-.43-1.42-.57-.9-1.51-2.24-2.84-4.04-.99,.47-1.49,1.21-1.49,2.2,0-.05,.33,2.36,.99,7.23,.05,.28,0,.72-.14,1.31-.14,.59-.21,.98-.21,1.17,0,1.89,.08,4.81,.25,8.75,.16,3.95,.25,5.87,.25,5.78v9.92c0,.28,.04,2.69,.11,7.23s.11,6.92,.11,7.16c0,9.88,3.52,15.08,10.56,15.59,.14,0,.32,.2,.53,.6,.21,.4,.37,.65,.46,.74,.05,.85-.07,1.56-.35,2.13h-24.74c-.19,0-1.05,.13-2.59,.39-1.54,.26-2.42,.39-2.66,.39h-1.13c-.43-.43-.64-.69-.64-.78,0-1.65,.52-2.76,1.56-3.33,1.23-.38,3.02-1.09,5.39-2.13,2.32-1.28,3.71-3.31,4.18-6.1,1.23-6.85,1.49-11.03,.78-12.55-.33-.66-.38-1.23-.14-1.7l.57-.71-.43-.64c-.05-.52-.02-1.43,.07-2.73,.09-1.3,.14-2.23,.14-2.8,0-.66-.13-1.79-.39-3.4-.26-1.61-.39-2.74-.39-3.4,0,.71,.09-.76,.28-4.39-.05-.14-.26-.61-.64-1.42l.35-.35c.19-.28,.31-.8,.35-1.56,.09-.14,.09-.31,0-.5-.66-5.34-.99-8.93-.99-10.77v-9.78c-.33-5.58-.5-8.98-.5-10.21,0-.14,.08-.45,.25-.92,.16-.47,.22-.87,.18-1.21-3.59-3.78-8.11-5.48-13.54-5.1l-.35-.35v-2.34c.52-.61,1.79-.92,3.83-.92,.24,0,2.14,.09,5.71,.28,3.57,.19,5.47,.28,5.71,.28,.19,0,1.95-.09,5.28-.28,3.33-.19,5.12-.28,5.35-.28,1.13,0,1.79,.05,1.98,.14,.66,.24,2.03,1.77,4.11,4.61,3.92,5.53,9.83,13.75,17.72,24.67,1.61,2.03,4.02,5.06,7.23,9.07-.57,4.16,.02,6.24,1.77,6.24,.19,0,.57-.14,1.13-.43s.97-.43,1.21-.43c.61,0,1.44,.87,2.48,2.62,.52,.9,1.02,1.77,1.49,2.62,3.45,2.79,5.6,4.92,6.45,6.38,.19,.8,.52,1.98,.99,3.54,.38,.52,.68,.78,.92,.78s.47-.09,.71-.28c.24-.19,.38-.28,.43-.28,1.28,1.37,3,3.38,5.17,6.03,.8-.38,1.21-.73,1.21-1.06,0-.24-.09-.64-.28-1.21-.19-.57-.28-.97-.28-1.21v-7.58c0-.24-.04-.58-.11-1.03-.07-.45-.11-1.03-.11-1.74,.19-.9,.33-2.17,.43-3.83-.24-1.37-.54-3.38-.92-6.03-.09-.38-.05-1.09,.14-2.13,.19-1.04,.28-1.63,.28-1.77,0-.19-.07-.58-.21-1.17-.14-.59-.21-1-.21-1.24-.09-.85-.09-2.01,0-3.47,.09-1.84,.14-3.07,.14-3.69,0-.24-.11-.64-.32-1.21s-.34-.99-.39-1.28l.28-1.91c.05-.38-.04-1.11-.25-2.2-.21-1.09-.32-1.91-.32-2.48,0-.19,.09-.61,.28-1.28,.19-.66,.26-1.13,.21-1.42-.28-1.94-.78-4.77-1.49-8.51-.66-2.46-3.36-4.09-8.08-4.89,.09-.8,0-1.65-.28-2.55,.52-.43,2.2-.64,5.03-.64l12.9,.5c-.28,0,1.84-.14,6.38-.43,2.69-.19,4.8-.02,6.31,.5v2.62Zm-26.3,54.16l-.64,.78-.43-.43,.35-1.49c.8,.76,1.04,1.13,.71,1.13Z"/><path d="M1131.55,866.41c0,1.75-.31,2.67-.92,2.76-.9,.09-2.22,.38-3.97,.85-.76-.05-1.8,.21-3.12,.78-1.61,1.47-2.55,3.57-2.84,6.31-.14,.24-.31,.62-.5,1.13-.24,2.65-.31,4.3-.21,4.96,.66,4.3,.99,6.47,.99,6.52v5.46c0,.19-.08,.56-.25,1.1-.17,.54-.27,.91-.32,1.1-.05,.33-.02,.97,.07,1.91,.43,3.78,.64,8.72,.64,14.81,0,.05-.08,.2-.25,.46-.17,.26-.25,.46-.25,.6,0,4.58,.05,6.4,.14,5.46-.19,2.51-.64,6.22-1.35,11.13-.28,1.47-1.1,3.7-2.45,6.7-1.35,3-2.49,5.14-3.44,6.42-1.13,1.47-3.21,3.28-6.24,5.46-2.41,1.75-4.84,3.47-7.3,5.17-.71-.52-2.74-.33-6.1,.57-.66,.38-1.7,.9-3.12,1.56-.24,.09-.62,.02-1.13-.21-.52-.24-.8-.35-.85-.35h-5.25c.66,0-.54-.33-3.62-.99-1.09-.05-2.65-.24-4.68-.57-1.23-.66-3.12-1.49-5.67-2.48-.76-.05-1.89-.16-3.4-.35-.52-.14-1.44-.59-2.76-1.35-8.51-4.91-12.95-13.33-13.33-25.24l-.64-22.4c-.33-6.19-.99-15.4-1.98-27.65-.28-2.69-1.3-4.58-3.05-5.67-.52-.38-2.76-1.06-6.73-2.06-.14-.28-.21-.54-.21-.78,0-.9,.8-1.23,2.41-.99,3.69,.47,7.92,.71,12.69,.71h6.88c.14,0,.8-.09,1.98-.28,1.18-.19,2.08-.28,2.69-.28,2.27,.14,5.67,.05,10.21-.28,.38,.47,.57,.9,.57,1.28,0,.76-1.47,1.37-4.39,1.84-.24,.19-.66,.5-1.28,.92-.33,.14-.8,.4-1.42,.78-.85,.66-1.32,1.25-1.42,1.77-.85,4.3-1.87,8.96-3.05,13.96,.05-.14,.28,.64,.71,2.34,.05,0-.14,1.23-.57,3.69,.19,.8,.07,2.69-.35,5.67,.09-.57,.35,1.18,.78,5.25,.05,.62-.07,2.69-.35,6.24,.05,.24,.14,.54,.28,.92,0,.24-.17,1.98-.5,5.25-.09,1.04,.12,3.28,.64,6.73,.28,.38,.59,.95,.92,1.7,.05,.14,.19,1.75,.43,4.82-.05,.57-.07,1.42-.07,2.55,.24,.52,.54,1.25,.92,2.2,.14,.38,.12,.97-.07,1.77,.57,.76,1.37,1.89,2.41,3.4,.57,1.04,1.7,2.46,3.4,4.25l3.83,2.98c1.79,1.28,3.4,2.03,4.82,2.27,1.28,.14,2.76,.21,4.47,.21h9.43c2.6,0,5.34-1.51,8.22-4.54,2.74-2.84,4.51-5.79,5.32-8.86,.38-2.6,.83-5.76,1.35-9.5,.38-2.46,.38-5.79,0-9.99l.14-33.53c-.33-2.79-1.06-6.03-2.2-9.71-.47-1.51-2.27-2.69-5.39-3.54-.57-.14-1.56-.35-2.98-.64-.28-.47-.43-1.09-.43-1.84-.24,0,.5-.09,2.2-.28,3.54-.43,6.92-.28,10.14,.43,.57-.14,1.35-.24,2.34-.28,1.79,.33,4.91,.26,9.36-.21,.19-.05,.54-.01,1.06,.11,.52,.12,.87,.18,1.06,.18,.52,0,2.81-.19,6.88-.57Z"/><path d="M1165.6,910.95v9.44h-35.86v-9.44h35.86Z"/><path d="M1305.7,973.02c0,.57-.02,1.13-.07,1.7-.09,.71-.44,1.17-1.03,1.38-.59,.21-1.81,.44-3.65,.67-.62,.09-1.91,.45-3.9,1.06-1.8,.57-3.14,.85-4.04,.85-.33,0-.64-.04-.92-.11s-.73-.34-1.35-.82c-.8-.57-1.13-1.04-.99-1.42-.52-.28-1.51-.21-2.98,.21,.99,.52,2.2,1.18,3.62,1.98-3.54,.19-5.93-.14-7.16-.99,.09-.43,.26-1.09,.5-1.98-.05-.05-.19-.14-.43-.28,.24-.05-1.75-.26-5.95-.64,0-.05-.17,.07-.5,.35,.38,.19,.92,.45,1.63,.78-2.13,.09-3.47-.05-4.04-.43-.57-.76-1.13-1.49-1.7-2.2-1.09-1.23-2.06-1.75-2.91-1.56-1.09-1.47-3.66-4.18-7.73-8.15-3.54-3.4-5.39-5.48-5.53-6.24-.47-.28-1.06-.78-1.77-1.49-.71-.9-1.56-2.29-2.55-4.18-.19-.47-.57-.73-1.13-.78-.66-2.08-2.13-3.9-4.39-5.46,.38-.57,.43-1.06,.14-1.49-1.18-1.37-2.39-2.76-3.62-4.18-1.61-1.89-2.41-3.52-2.41-4.89,0-.24,.02-.47,.07-.71,.14-.14,.66-.12,1.56,.07,.24,.19,.59,.45,1.06,.78,1.04-.19,1.87-.57,2.48-1.13,.85,.76,1.96,1.91,3.33,3.47,.71-.14,1.06-.57,1.06-1.28,0-1.23-.69-1.82-2.06-1.77,.09-.09,.2-.26,.32-.5,.12-.24,.22-.38,.32-.43,.28,.24,.76,.57,1.42,.99,.38,0,.66-.14,.85-.43,.14-.57,.14-1.28,0-2.13-1.13-.94-2.46-1.42-3.97-1.42-.85,0-2.1,.2-3.76,.6-1.65,.4-2.84,.6-3.54,.6-.9,0-1.68-.19-2.34-.57-1.65-.94-2.74-2.6-3.26-4.96-.24-.19-.54-.45-.92-.78,.05-.19,.09-.38,.14-.57,0-.76-.4-1.42-1.21-1.98-.8-.57-1.56-.85-2.27-.85-2.69,.05-6.33,.05-10.92,0-5.39-.05-9.03-.07-10.92-.07-.43,0-.64,.21-.64,.64-.09,2.74-.09,4.3,0,4.68v9.14c.19,5.29,.28,8.6,.28,9.92,0,.19-.11,.57-.32,1.13s-.27,1.02-.18,1.35c.43,.62,.92,1.61,1.49,2.98,.52,3.45,.68,5.67,.5,6.66-.66,.47-1.73,1.23-3.19,2.27,0,.28,.07,.47,.21,.57,2.65,.05,6.88,.59,12.69,1.63,.47,.14,1.18,.38,2.13,.71,.09,.38,.02,1.35-.21,2.91-.76,.57-1.42,.85-1.98,.85-1.42,0-5.2-.45-11.34-1.35l-15.38-.28c-.99,.28-2.55,.57-4.68,.85-3.36,.14-7.35,.21-11.98,.21,0-.8,.02-1.96,.07-3.47,1.51-.62,3.71-1.3,6.59-2.06,1.51-.38,3.12-1.62,4.82-3.72,1.7-2.1,2.6-3.84,2.69-5.21,.61-6.57,.92-10.16,.92-10.77v-50.9c0-.19-.07-.76-.21-1.7-.14-.94-.21-1.58-.21-1.91-.05-.61,.05-2.06,.28-4.32,.24-2.27,.35-4.06,.35-5.39,0-.57-.09-1.65-.28-3.26-.24-1.79-.35-3.09-.35-3.9-.09-1.37-.35-3.38-.78-6.03-.33-.66-.78-1.68-1.35-3.05-.43-1.65-2.29-2.93-5.6-3.83-.43-.19-1.16-.5-2.2-.92-.85,0-2.06-.05-3.62-.14-1.13-.76-1.3-1.89-.5-3.4,1.37-.33,3.4-.71,6.1-1.13,7.66-.61,12.07-.92,13.26-.92h10.14c.19,0,1.52-.14,4.01-.43s3.84-.43,4.08-.43h5.67c.24,0,.99,.07,2.27,.21,1.46,.14,2.48,.24,3.05,.28,.9-.14,2.2-.26,3.9-.35,4.87,.62,10.37,1.63,16.52,3.05,2.27,.52,6.85,3.52,13.75,9,.24,.38,.24,.9,0,1.56-.8,.8-2.42,1.83-4.86,3.08-2.43,1.25-4.08,2.33-4.93,3.23,.09,.57,.64,.92,1.63,1.06,.85,.09,1.63,.02,2.34-.21,.09-.28,.38-.59,.85-.92,1.32-.24,2.27-.35,2.84-.35,.24,.8,.78,1.63,1.63,2.48,.76-.24,1.13-.73,1.13-1.49-.05-.71-.4-1.37-1.06-1.98,.66-.19,1.35-.19,2.06,0,.99,.28,1.87,.43,2.62,.43,.47,2.46,.97,4.92,1.49,7.37,.66,3.31,.99,6.07,.99,8.29,0,1.89-.21,3.62-.64,5.17-.66,2.55-2.03,6.33-4.11,11.34-1.23,2.17-3.54,5.32-6.95,9.43-.09,.14-2.32,1.87-6.66,5.17,1.32,2.51,3.19,5.27,5.6,8.29,1.89,2.36,3.35,4.51,4.39,6.45,1.13,2.13,2.01,3.62,2.62,4.47,.09,.33,.26,.76,.5,1.28,2.65,3.21,6.45,8.01,11.41,14.39,.14,.28,.14,.54,0,.78,1.98,1.51,4.47,3.66,7.44,6.45,1.32,1.32,3.14,3.33,5.46,6.03-1.51,.14-2.27,.85-2.27,2.13,0,1.18,.59,2.01,1.77,2.48,.24-1.7,.97-2.55,2.2-2.55,.19,0,.38,.02,.57,.07,.19,.05,1.35,.59,3.47,1.63,3.17,1.56,6.33,3.12,9.5,4.68,1.37,.57,3.24,.87,5.6,.92Zm-56.99-84.28c-1.28-.43-1.91-1.06-1.91-1.91v-7.51c0-.24-.07-.53-.21-.89s-.24-.6-.28-.74c-.28-3.02-1.8-6.45-4.54-10.28-3.03-4.2-6.17-6.64-9.43-7.3-.47-.28-1.11-.59-1.91-.92-4.77-.99-7.47-1.49-8.08-1.49h-6.24c-2.36,0-4.51,.31-6.45,.92-.19,.09-.73,.66-1.63,1.7,.33,2.79,.47,4.35,.43,4.68,0,.05-.08,.19-.25,.43-.17,.24-.25,.47-.25,.71v9.85c0,.24-.14,.65-.43,1.24-.28,.59-.4,1.03-.35,1.31,.28,1.13,.59,2.25,.92,3.33,.33,1.23,.33,2.32,0,3.26-.76,2.22-.85,5.17-.28,8.86-.09-.76-.14,.35-.14,3.33v10.14c0,.62-.07,1.37-.21,2.27-.09,.66-.12,1.21-.07,1.63,.14,.62,.45,1.44,.92,2.48,1.13,.33,2.79,.73,4.96,1.21l13.82,.28c1.46-.61,3.69-1.49,6.66-2.62,1.13-.33,2.62-.94,4.47-1.84,2.79-2.55,4.77-4.94,5.95-7.16,.99-1.79,1.75-4.2,2.27-7.23,.05-.9,.21-2.27,.5-4.11,.09-.71,.26-1.63,.5-2.76,.24-.71,.66-.99,1.28-.85Zm-4.25,43.88c-.57,.66-1.11,.92-1.63,.78,.09-.52,.43-.9,.99-1.13,.09,.05,.31,.17,.64,.35Z"/><path d="M1307.97,873.99c-.19,.71-.5,1.7-.92,2.98l-4.25,.92c-1.8,.43-2.93,1.23-3.4,2.41-.38,.57-.85,1.37-1.42,2.41-.09,.33-.71,3.07-1.84,8.22l-.28,29.77c-.33,1.23-.5,1.89-.5,1.98l.5,1.49-.14,10.99c-.33,1.51-.33,3.59,0,6.24,.33,3.07,.99,5.58,1.98,7.51,.33,.66,1.16,1.4,2.48,2.2,2.46,1.42,4.91,2.1,7.37,2.06-.05,.62-.31,1.51-.78,2.69h-8.22c-.14,0-.96-.05-2.45-.14-1.49-.09-2.28-.14-2.37-.14-.14,0-.78,.05-1.91,.14-1.13,.09-1.75,.14-1.84,.14s-.53-.05-1.31-.14c-.78-.09-1.24-.14-1.38-.14s-.46,.05-.96,.14c-.5,.09-.82,.14-.96,.14l-14.81,.35c-1.28,0-1.91-.47-1.91-1.42,0-1.09,.33-1.72,.99-1.91,1.51-.28,3.02-.54,4.54-.78,1.75-.38,2.88-1.02,3.4-1.91,.19-.57,.47-1.44,.85-2.62,.66,.05,1.68,.19,3.05,.43,.47-1.94,.71-3.19,.71-3.76,0-.52-.24-1.23-.71-2.13,.38-.94,.45-1.75,.21-2.41-.19-.47-.64-1.28-1.35-2.41-.62-.99-.92-1.56-.92-1.7,0,.33,.4-1.09,1.21-4.25,.09-.38-.05-.92-.43-1.63,.8-1.32,1.21-2.22,1.21-2.69,0-.09-.12-1.63-.35-4.61,0-.24-.17-.68-.5-1.35-.33-.66-.5-1.06-.5-1.21,0-.19,.19-.52,.57-.99-.09,.19-.14-.07-.14-.78v-8.58c0-.14,.11-.57,.32-1.28s.32-1.13,.32-1.28c0-.09-.07-.27-.21-.53-.14-.26-.21-.46-.21-.6,0,.19,.07-.87,.21-3.19,0-.47-.09-1.79-.28-3.97v-5.6c0-.52-.33-1.28-.99-2.27,.19-.52,.05-1.49-.43-2.91-.05-.66-.24-1.65-.57-2.98-.38-.43-.85-1.04-1.42-1.84-.19-.47-.52-1.18-.99-2.13-.95-1.46-1.84-2.41-2.69-2.84-1.09-.28-2.72-.8-4.89-1.56,.14-.66,.4-1.51,.78-2.55h.64c.14,0,.58,.05,1.31,.14,.73,.09,1.17,.14,1.31,.14l35.3-.28Z"/><path d="M1406,869.17c-.9,.14-2.2,.38-3.9,.71-1.8,.52-3.21,1.65-4.25,3.4-1.47,2.6-2.36,5.15-2.69,7.66-.62,4.35-.92,7.89-.92,10.63,0,.19,.09,2.23,.28,6.13,.19,3.9,.28,5.97,.28,6.2v11.27c0,.14,.08,.62,.25,1.42,.16,.8,.22,1.42,.18,1.84-.28,5.72-.43,8.93-.43,9.64,0,.38,.09,1.15,.28,2.3,.19,1.16,.28,1.83,.28,2.02v21.76c0,.28,.04,.44,.11,.46,.07,.02,.11,.06,.11,.11-3.31,.57-4.8,.85-4.47,.85-1.98,0-3.21-.21-3.69-.64-3.26-3.02-8.08-8.32-14.46-15.88-1.13-1.51-2.84-3.69-5.1-6.52-1.98-1.94-4.68-4.77-8.08-8.51-.85-1.42-2.27-3.52-4.25-6.31-4.25-5.15-10.28-12.74-18.08-22.75-1.04-.8-2.46-2.08-4.25-3.83-.05-.33-.19-.8-.43-1.42-.57-.9-1.51-2.24-2.84-4.04-.99,.47-1.49,1.21-1.49,2.2,0-.05,.33,2.36,.99,7.23,.05,.28,0,.72-.14,1.31-.14,.59-.21,.98-.21,1.17,0,1.89,.08,4.81,.25,8.75,.16,3.95,.25,5.87,.25,5.78v9.92c0,.28,.04,2.69,.11,7.23s.11,6.92,.11,7.16c0,9.88,3.52,15.08,10.56,15.59,.14,0,.32,.2,.53,.6,.21,.4,.37,.65,.46,.74,.05,.85-.07,1.56-.35,2.13h-24.74c-.19,0-1.05,.13-2.59,.39-1.54,.26-2.42,.39-2.66,.39h-1.13c-.43-.43-.64-.69-.64-.78,0-1.65,.52-2.76,1.56-3.33,1.23-.38,3.02-1.09,5.39-2.13,2.32-1.28,3.71-3.31,4.18-6.1,1.23-6.85,1.49-11.03,.78-12.55-.33-.66-.38-1.23-.14-1.7l.57-.71-.43-.64c-.05-.52-.02-1.43,.07-2.73,.09-1.3,.14-2.23,.14-2.8,0-.66-.13-1.79-.39-3.4-.26-1.61-.39-2.74-.39-3.4,0,.71,.09-.76,.28-4.39-.05-.14-.26-.61-.64-1.42l.35-.35c.19-.28,.31-.8,.35-1.56,.09-.14,.09-.31,0-.5-.66-5.34-.99-8.93-.99-10.77v-9.78c-.33-5.58-.5-8.98-.5-10.21,0-.14,.08-.45,.25-.92,.16-.47,.22-.87,.18-1.21-3.59-3.78-8.11-5.48-13.54-5.1l-.35-.35v-2.34c.52-.61,1.79-.92,3.83-.92,.24,0,2.14,.09,5.71,.28,3.57,.19,5.47,.28,5.71,.28,.19,0,1.95-.09,5.28-.28,3.33-.19,5.12-.28,5.35-.28,1.13,0,1.79,.05,1.98,.14,.66,.24,2.03,1.77,4.11,4.61,3.92,5.53,9.83,13.75,17.72,24.67,1.61,2.03,4.02,5.06,7.23,9.07-.57,4.16,.02,6.24,1.77,6.24,.19,0,.57-.14,1.13-.43s.97-.43,1.21-.43c.61,0,1.44,.87,2.48,2.62,.52,.9,1.02,1.77,1.49,2.62,3.45,2.79,5.6,4.92,6.45,6.38,.19,.8,.52,1.98,.99,3.54,.38,.52,.68,.78,.92,.78s.47-.09,.71-.28c.24-.19,.38-.28,.43-.28,1.28,1.37,3,3.38,5.17,6.03,.8-.38,1.21-.73,1.21-1.06,0-.24-.09-.64-.28-1.21-.19-.57-.28-.97-.28-1.21v-7.58c0-.24-.04-.58-.11-1.03-.07-.45-.11-1.03-.11-1.74,.19-.9,.33-2.17,.43-3.83-.24-1.37-.54-3.38-.92-6.03-.09-.38-.05-1.09,.14-2.13,.19-1.04,.28-1.63,.28-1.77,0-.19-.07-.58-.21-1.17-.14-.59-.21-1-.21-1.24-.09-.85-.09-2.01,0-3.47,.09-1.84,.14-3.07,.14-3.69,0-.24-.11-.64-.32-1.21s-.34-.99-.39-1.28l.28-1.91c.05-.38-.04-1.11-.25-2.2-.21-1.09-.32-1.91-.32-2.48,0-.19,.09-.61,.28-1.28,.19-.66,.26-1.13,.21-1.42-.28-1.94-.78-4.77-1.49-8.51-.66-2.46-3.36-4.09-8.08-4.89,.09-.8,0-1.65-.28-2.55,.52-.43,2.2-.64,5.03-.64l12.9,.5c-.28,0,1.84-.14,6.38-.43,2.69-.19,4.8-.02,6.31,.5v2.62Zm-26.3,54.16l-.64,.78-.43-.43,.35-1.49c.8,.76,1.04,1.13,.71,1.13Z"/><path d="M1479.65,867.05c.09,.38,.14,.8,.14,1.28,0,1.04-.23,2.86-.67,5.46-.45,2.6-.67,4.54-.67,5.81,0,.66,.02,1.28,.07,1.84-.24,.85-.45,2.03-.64,3.54,.38,1.89,.59,2.62,.64,2.2-.14,.28-.35,.64-.64,1.06,0,.47,.14,1.82,.43,4.04-1.18,1.13-2.25,1.7-3.19,1.7-.38,0-.8-.28-1.28-.85,.43-2.79,.57-4.51,.43-5.17-.14-.76-.43-1.82-.85-3.19-.95-2.08-2.69-4.37-5.25-6.88-.99-.94-3.31-2.2-6.95-3.76-.43-.19-1.96-.52-4.61-.99-1.7-.28-4.21-.43-7.51-.43-9.36,0-16.71,2.48-22.05,7.44-.66,.33-1.61,1.06-2.84,2.2-4.11,5.67-6.45,11.22-7.02,16.66-.24,2.27-.35,6-.35,11.2v4.68c0-.28,.33,.97,.99,3.76,.05,1.47,.28,3.45,.71,5.95,.28,.24,.76,.95,1.42,2.13,.05,.62,.21,1.42,.5,2.41,.66,.9,1.68,2.25,3.05,4.04,.19,.57,.52,1.37,.99,2.41,2.13,3.88,5.41,7.09,9.85,9.64,1.98,1.13,3.95,1.94,5.88,2.41,9.31,2.17,15.29,3.26,17.93,3.26,1.23,0,2.43-.14,3.62-.43,.57-.09,1.39-.38,2.48-.85l.35-2.76c0-.66-.31-1.11-.92-1.35-.85-.28-1.42-.66-1.7-1.13-.47-.76-.5-2.22-.07-4.39v-11.27c-.28-2.74-.69-4.89-1.21-6.45-.28-.24-.66-.68-1.13-1.35-.8-2.5-2.53-4.11-5.17-4.82-1.09-.28-3.4-.47-6.95-.57-.14-.09-.35-.26-.64-.5v-1.84c1.18-.38,3.12-.57,5.81-.57,.19,0,1.84,.13,4.96,.39,3.12,.26,4.77,.39,4.96,.39,.24,0,.64-.11,1.21-.32s.99-.34,1.28-.39c2.88-.24,4.49-.35,4.82-.35,6.66,0,9.5,.02,8.51,.07v3.05c0,.14-.21,.64-.64,1.49-.52,.99-.83,1.68-.92,2.06-.8,3.26-1.28,6.57-1.42,9.92-.19,4.25-.28,7.18-.28,8.79,0,3.26,.35,7.75,1.06,13.47-2.17,1.13-7.87,2.65-17.08,4.54-.76-.05-1.91,0-3.47,.14-2.13,.47-3.62,.71-4.47,.71-.24,0-.59-.07-1.06-.21-.47-.14-.8-.21-.99-.21-4.87-.24-8.91-.64-12.12-1.21-1.23-.47-3.05-1.06-5.46-1.77-4.77-.94-10.04-3.97-15.81-9.07-6-5.34-9.69-10.47-11.06-15.38-.43-1.09-.97-2.72-1.63-4.89-.38-.71-.87-1.77-1.49-3.19-.57-2.32-.85-4.28-.85-5.88,0,.14,.12-.73,.35-2.62,.24-1.61,.26-2.74,.07-3.4-.19-.76-.28-1.56-.28-2.41,0-1.61,.4-3.9,1.21-6.88,.94-3.69,1.51-6.17,1.7-7.44,4.63-8.36,7.44-12.55,8.44-12.55,.19,0,.33,.08,.43,.25,.09,.17,.26,.25,.5,.25,.8,0,1.44-.19,1.91-.57,.19-.57,.57-1.35,1.13-2.34,4.39-4.87,7.06-7.3,8.01-7.3,.24,0,.4,.05,.5,.14,.09,.09,.24,.14,.43,.14s.7-.32,1.52-.96c.83-.64,1.36-.96,1.59-.96,.19,0,.46,.09,.82,.28,.35,.19,.63,.28,.82,.28,.24,0,2.34-.5,6.31-1.49s6.07-1.49,6.31-1.49h18.22c.24,0,2.41,.23,6.52,.67,4.11,.45,6.28,.67,6.52,.67h5.95Z"/></g></svg>